# xmcd CD database file
#
# Track frame offsets:
#	150
#	19075
#	36128
#	56049
#	74922
#	92876
#	109701
#	131614
#	146552
#	163924
#	188536
#	202471
#	220435
#
# Disc length: 3044 seconds
#
# Revision: 2
# Processed by: cddbd v1.4PL0 Copyright (c) Steve Scherf et al.
# Submitted via: CDex 1.50
#
DISCID=d10be20d
DTITLE=HEIDI MINKE - CONNECTED
DYEAR=2002
DGENRE=Jazz
TTITLE0=BEACH
TTITLE1=BLUE MOON
TTITLE2=AIN'T NO SUNSHINE
TTITLE3=EXI
TTITLE4=QUEEN
TTITLE5=EMILY'S BLUES
TTITLE6=TIME AFTER TIME
TTITLE7=CONNECTED
TTITLE8=BOD BLESS THE CHILD
TTITLE9=MY FOOLISH HEART
TTITLE10=PAPER MOON
TTITLE11=STAR FELIPE
TTITLE12=FIDDLER ON THE ROOF
EXTD=YEAR: 2002
EXTT0=
EXTT1=
EXTT2=
EXTT3=
EXTT4=
EXTT5=
EXTT6=
EXTT7=
EXTT8=
EXTT9=
EXTT10=
EXTT11=
EXTT12=
PLAYORDER=
